<svg xmlns="http://www.w3.org/2000/svg" width="54.804" height="54.728" viewBox="0 0 54.804 54.728"><defs><style>.a{isolation:isolate;}.b{fill:#fff;}</style></defs><g class="a" transform="translate(-23.021 -23.355)"><path class="b" d="M190.377,82.236l.241-21.61,18.472,23.154s14.149-10.17,8.233-29.806c0,0-3.633-11.93-16.047-16.495,0,0-2.557,3.87-.4,6.609s6.1,5.259,7.923,8.654a20.373,20.373,0,0,1,.31,19.937L191.06,50.742a5.09,5.09,0,0,0-2.218-1.582,3.489,3.489,0,0,0-4.467,1.751,7.289,7.289,0,0,0-1.056,3.832V75.527A7.883,7.883,0,0,0,190.377,82.236Z" transform="translate(-140.945 -12.419)"/><path class="b" d="M59.861,24.549s-2.137,5.2-12.324,6.08S31.9,44.85,31.489,48.32c-.4,3.343-1.533,11.575,9.384,19.462a22,22,0,0,0,19.462,1.423,9.923,9.923,0,0,1,7.595,3.139,28.308,28.308,0,0,1-23.15,4.821c-13.364-3.213-19.789-15.444-20.3-21.506s-.548-13.763,5-21.287A28.01,28.01,0,0,1,48.468,23.454,37.011,37.011,0,0,1,59.861,24.549Z" transform="translate(-1.092 0)"/><path class="b" d="M36.419,179.49s-12-7.429-10.816-25.9c0,0-7.648,15.714,3.38,28.733s24.09,10.986,31.113,8.219,6.745-3.685,6.745-3.685a9.106,9.106,0,0,0-7.595-3.139s-5.99,2.264-11.695,1.342S39.437,182.056,36.419,179.49Z" transform="translate(0 -114.512)"/><path class="b" d="M331.148,71.429s10.545-10.382,6.733-19.619c0,0-4.688-10.88-15.181-14.33,0,0-2.358,3.525-.693,6.238,1.486,2.415,4.208,3.412,7.621,8.311a15.28,15.28,0,0,1,2.052,4.225c.011.035.022.071.034.106a23.059,23.059,0,0,1-.03,13.62,12.508,12.508,0,0,1-.536,1.449Z" transform="translate(-262.368 -12.419)"/></g></svg>